<svg width="621" height="855" viewBox="0 0 621 855" fill="none" xmlns="http://www.w3.org/2000/svg">
<path d="M359.17 855H0V263.014C0 190.722 30.1261 120.784 82.6126 71.2894C135.902 21.055 205.527 -4.09584 278.7 0.544291C413.732 9.08481 523.592 124.012 523.592 256.76C523.592 298.992 517.701 342.434 509.734 376.932C577.016 424.611 621 503.225 621 591.992C621 737.047 503.508 855 359.17 855V855ZM241.344 745.251H359.17C443.323 745.251 511.743 676.456 511.743 591.992C511.743 549.895 494.805 511.765 467.357 483.992C415.406 583.25 341.43 668.924 241.344 745.251V745.251ZM109.19 438.666V704.162C229.695 627.029 312.375 542.027 367.539 438.935C364.727 438.801 361.915 438.734 359.104 438.734H109.257L109.19 438.666ZM109.19 328.917H359.17C375.572 328.917 391.573 330.464 407.104 333.356C411.121 311.097 414.335 284.063 414.335 256.76C414.335 180.837 350.4 115.001 271.805 110.092C229.026 107.334 188.389 121.995 157.392 151.315C126.329 180.635 109.19 220.311 109.19 263.081V328.985V328.917Z" fill="#1E1E1E"/>
</svg>
