<svg fill="none" height="32" viewBox="0 0 65 32" width="65" xmlns="http://www.w3.org/2000/svg" xmlns:xlink="http://www.w3.org/1999/xlink"><clipPath id="a"><path d="m.00415 0h64v32h-64z"/></clipPath><g clip-path="url(#a)"><path clip-rule="evenodd" d="m7 2c-2.76142 0-5 2.23858-5 5v13c0 .5523-.44772 1-1 1-.552285 0-1-.4477-1-1v-13c0-3.86599 3.13401-7 7-7h12c.5523 0 1 .447715 1 1 0 .55228-.4477 1-1 1z" fill="#ffd000" fill-rule="evenodd"/><path clip-rule="evenodd" d="m63 20c.5523 0 1 .4477 1 1v4c0 3.866-3.134 7-7 7h-19c-.5523 0-1-.4477-1-1s.4477-1 1-1h19c2.7614 0 5-2.2386 5-5v-4c0-.5523.4477-1 1-1z" fill="#df1a79" fill-rule="evenodd"/><path clip-rule="evenodd" d="m45 1c0-.552285.4477-1 1-1h11c3.866 0 7 3.13401 7 7v7c0 .5523-.4477 1-1 1s-1-.4477-1-1v-7c0-2.76142-2.2386-5-5-5h-11c-.5523 0-1-.44772-1-1z" fill="#6600f5" fill-rule="evenodd"/><path d="m4 8c0-2.20914 1.79086-4 4-4h48c2.2091 0 4 1.79086 4 4v16c0 2.2091-1.7909 4-4 4h-48c-2.20914 0-4-1.7909-4-4z" fill="#fefefe"/><g fill="#1e1e1e"><path d="m19.6095 23.3469h-6.8898v-11.3183c0-1.3821.5779-2.71931 1.5847-3.66561 1.0223-.96044 2.3579-1.4413 3.7615-1.35258 2.5902.16328 4.6976 2.3606 4.6976 4.89859 0 .8075-.113 1.6381-.2658 2.2976 1.2906.9116 2.1344 2.4146 2.1344 4.1118 0 2.7733-2.2538 5.0285-5.0226 5.0285zm-2.2602-2.0983h2.2602c1.6143 0 2.9267-1.3153 2.9267-2.9302 0-.8049-.3249-1.5339-.8514-2.0649-.9965 1.8978-2.4156 3.5358-4.3355 4.9951zm-2.535-5.8617v5.0761c2.3116-1.4747 3.8976-3.0999 4.9557-5.0709-.0539-.0026-.1078-.0039-.1618-.0039h-4.7926zm0-2.0983h4.7952c.3146 0 .6216.0296.9195.0849.0771-.4256.1387-.9425.1387-1.4645 0-1.4516-1.2264-2.71028-2.7341-2.80414-.8206-.05271-1.6001.22757-2.1947.78815-.5959.56059-.9246 1.31919-.9246 2.13689v1.26z"/><path d="m43.5539 11.066c.2479.2481.3724.5554.3724.9206 0 .3651-.1245.6685-.3724.9115-.2478.243-.5715.3652-.9683.3652s-.7037-.1209-.9516-.3652c-.2478-.243-.3724-.5464-.3724-.9115 0-.3652.1246-.6712.3724-.9206.2479-.2482.5651-.3729.9516-.3729.3866 0 .7205.1247.9683.3729z"/><path d="m29.1204 11.0662c.2479.2482.3725.5555.3725.9206 0 .3652-.1246.6686-.3725.9116-.2478.243-.5714.3651-.9683.3651-.3968 0-.7037-.1208-.9516-.3651-.2478-.243-.3724-.5464-.3724-.9116 0-.3651.1246-.6711.3724-.9206.2479-.2481.5651-.3728.9516-.3728.3866 0 .7205.1247.9683.3728z"/><path d="m43.6531 14.0242v9.1055h-2.1189v-8.7584z"/><path d="m29.2138 14.0242v9.1055h-2.119v-8.7584z"/><path d="m53.3437 19.3964h-5.4977c.0668.8512.2864 1.4593.6626 1.8232.375.3651.872.5464 1.4897.5464.3866 0 .75-.063 1.0929-.1903.3416-.1272.7063-.3227 1.0928-.5888l.8772 1.2098c-.9709.7843-2.0535 1.1765-3.2452 1.1765-1.3356 0-2.3656-.4089-3.0886-1.2266s-1.0838-1.9337-1.0838-3.348c0-.8949.1541-1.6998.4636-2.4121s.7564-1.2703 1.3407-1.674c.5856-.4037 1.2803-.6056 2.0868-.6056 1.2252 0 2.1742.3896 2.8484 1.1688.6729.7791 1.0107 1.8656 1.0107 3.258 0 .1106-.0167.3973-.0501.8614zm-2.0535-1.4747c0-1.5365-.5689-2.304-1.7054-2.304-.5188 0-.9246.1903-1.2174.5721-.2928.3819-.4662.9926-.5214 1.8322h3.4442v-.099z"/><path d="m38.6871 10.6138v10.4414c0 .2391.1695.4333.3788.4333h.3352v1.89h-1.0287c-.994 0-1.7992-.9219-1.7992-2.061v-10.4427l2.1151-.261z"/><path d="m33.7955 10.6138v10.4414c0 .2391.1695.4333.3788.4333h.3352v1.89h-1.0287c-.994 0-1.7992-.9219-1.7992-2.061v-10.4427l2.1151-.261z"/></g></g></svg>
